<?xml version="1.0" encoding="utf-8"?>
<!-- Generator: Adobe Illustrator 27.0.0, SVG Export Plug-In . SVG Version: 6.00 Build 0)  -->
<svg version="1.1" id="Capa_1" xmlns="http://www.w3.org/2000/svg" xmlns:xlink="http://www.w3.org/1999/xlink" x="0px" y="0px"
	 viewBox="0 0 512 512" style="enable-background:new 0 0 512 512;" xml:space="preserve">
<style type="text/css">
	.st0{fill:#00001A;}
</style>
<g transform="translate(0.000000,512.000000) scale(0.100000,-0.100000)">
	<path class="st0" d="M40,4195v-695l1604-2l1604-3l43-30c65-46,99-118,98-209c-1-102-22-149-87-197l-34-24l-1496-5l-1497-5l-3-1398
		l-2-1397h785h785v745v745h68h68l735-745l734-745h818h817v675v675h-622h-623l-193,246c-106,135-195,250-198,257c-3,8,32,19,109,34
		c222,43,469,142,644,259c181,121,347,314,423,494c59,138,82,247,87,426c24,741-325,1281-966,1493c-119,40-305,77-451,90
		c-74,7-668,11-1682,11H40V4195z"/>
</g>
</svg>
